<svg xmlns="http://www.w3.org/2000/svg" height="1200" width="1600" version="1.1" xmlns:xlink="http://www.w3.org/1999/xlink" xmlns:svgjs="http://svgjs.com/svgjs"><rect fill="#ffffff" width="1600" height="1200"></rect><g><path d="M711.77 311.51L711.73 135.18 888.06 135.14 888.1 311.51H711.77Z" fill="#3c2c5b" opacity="1" stroke-width="4" stroke="none"></path><path d="M743.97 279.31L855.89 279.27 855.86 167.35 743.97 167.39V279.31Z" fill="#ffce99" opacity="1" stroke-width="4" stroke="none"></path><path d="M762.6 218.18C779.33 201.45 813.69 180.28 816.65 191.16 820.51 205.31 771.68 236.91 783.19 246.49 790.36 252.46 820.38 218.05 829.51 227.19 835.95 233.62 821.79 242.63 829.51 256.79" stroke="#44311d" stroke-width="4" stroke-linecap="round" opacity="1" fill="none"></path></g><g><path d="M384.7 563.15H369.36V269.86H109.55V563.15H94.2V580.19H109.55 369.36 384.7V563.15Z" fill="#ffffff" opacity="1" stroke-width="4" stroke="none"></path><path d="M124.89 563.2V405.24H354.01V563.2H124.89Z" fill="#a3e2ff" opacity="1" stroke-width="4" stroke="none"></path><path d="M124.89 388.2V286.85H354.01V388.2H124.89Z" fill="#a3e2ff" opacity="1" stroke-width="4" stroke="none"></path></g><g><path d="M1233.67 175.61L1209.56 149.52C1209.43 149.4 1208.94 148.78 1208.82 148.53V136.9C1208.82 136.78 1208.69 136.53 1208.57 136.53 1208.57 136.53 1208.57 136.53 1208.45 136.53H1137.46C1137.33 136.53 1137.09 136.66 1137.09 136.78 1137.09 136.78 1137.09 136.78 1137.09 136.9V148.41L1112.23 175.74C1112.11 175.86 1112.11 176.11 1112.23 176.23 1112.23 176.23 1112.35 176.36 1112.48 176.36L1183.71 176.6C1183.83 176.6 1183.83 176.6 1183.83 176.73L1183.71 335.15C1183.71 335.27 1183.83 335.52 1183.96 335.52 1183.96 335.52 1183.96 335.52 1184.08 335.52H1233.3C1233.43 335.52 1233.67 335.4 1233.67 335.27 1233.67 335.27 1233.67 335.27 1233.67 335.15V175.86C1233.67 175.74 1233.67 175.61 1233.67 175.61Z" fill="#a3e2ff" opacity="1" stroke-width="4" stroke="none"></path><path d="M1233.67 245.49L1184.33 218.65C1184.08 218.53 1183.83 218.65 1183.83 218.9V175.98C1183.83 175.86 1183.71 175.61 1183.59 175.61 1183.59 175.61 1183.59 175.61 1183.46 175.61H1112.48C1112.35 175.61 1112.11 175.74 1112.11 175.86 1112.11 175.86 1112.11 175.86 1112.11 175.98V335.03C1112.11 335.15 1112.23 335.4 1112.35 335.4 1112.35 335.4 1112.35 335.4 1112.48 335.4H1183.46C1183.59 335.4 1183.83 335.27 1183.83 335.15 1183.83 335.15 1183.83 335.15 1183.83 335.03V270.72C1183.83 270.84 1183.83 270.96 1183.96 270.96 1195.21 279.37 1233.18 297.92 1233.18 297.92 1233.43 298.05 1233.67 297.92 1233.67 297.68V245.49C1233.67 245.61 1233.8 245.74 1233.67 245.49Z" fill="#ffffff" opacity="1" stroke-width="4" stroke="none"></path><path d="M1112.35 245.49L1183.34 218.53C1183.59 218.4 1183.83 218.65 1183.83 218.9V270.84C1183.83 270.96 1183.71 271.09 1183.59 271.21L1112.6 298.3C1112.35 298.42 1112.11 298.17 1112.11 297.92V245.86C1112.11 245.74 1112.23 245.61 1112.35 245.49Z" fill="#a3e2ff" opacity="1" stroke-width="4" stroke="none"></path><path d="M1208.07 150.26L1183.71 175.61V333.42" stroke="#444f54" stroke-width="4" stroke-linecap="round" stroke-linejoin="round" opacity="1" fill="none"></path></g><g><path d="M1385.02 237.26H1300.9V329.75H1385.02V237.26Z" fill="#ff2e2e" opacity="1" stroke-width="4" stroke="none"></path><path d="M1339.76 237.26H1255.64V329.75H1339.76V237.26Z" fill="#ff2e2e" opacity="1" stroke-width="4" stroke="none"></path><path d="M1385.02 237.26H1363.62L1300.9 308.45V329.75H1323.43L1385.02 259.84V237.26Z" fill="#a3e2ff" opacity="1" stroke-width="4" stroke="none"></path><path d="M1300.9 237.26H1255.64V329.75H1300.9V237.26Z" fill="#000000" opacity="0.2" stroke-width="4" stroke="none"></path><path d="M1300.9 329.75V237.26" stroke="#000000" stroke-width="4" stroke-linecap="round" stroke-linejoin="round" opacity="1" fill="none"></path></g><g><path d="M545.26 425.88C541.13 418.08 510.99 371.43 524.99 373.14 528.84 373.14 532.07 376.45 535.39 379.95 538.71 383.36 542.48 387.4 547.68 388.74 549.66 389.19 552.62 389.73 553.33 387.94 554.14 386.05 551.9 382.02 547.59 377.71 543.29 373.31 536.92 371.43 531.27 369.64 525.44 367.75 520.86 366.32 520.86 363 520.68 356.63 534.94 357.08 539.25 357.44 586.52 352.23 584.55 388.12 603.75 423.37 603.75 423.46 603.75 423.46 603.66 423.55L555.58 454.14 549.48 446.51 545.26 425.88Z" fill="#e5bb98" opacity="1" stroke-width="4" stroke="none"></path><path d="M288.8 1079.62C287.18 1067.24 285.92 1055.13 285.39 1042.58 284.85 1030.38 284.94 1017.91 285.39 1005.71H372.76C370.78 1023.11 372.13 1035.58 378.86 1045.54 383.16 1051.9 389.53 1057.11 398.68 1062.76 405.95 1067.78 408.91 1076.48 412.67 1082.67 412.67 1082.58 288.62 1079.89 288.8 1079.62Z" fill="#e5bb98" opacity="1" stroke-width="4" stroke="none"></path><path d="M452.95 1076.39C452.95 1076.39 452.86 1076.39 452.95 1076.39 448.64 1064.1 443.35 1054.86 440.48 1042.22 437.79 1030.2 435.73 1018 434.29 1005.71 434.29 1005.62 434.29 1005.62 434.38 1005.62L482.82 1001.49 529.82 1005.62C529.82 1005.62 529.91 1005.62 529.91 1005.71 530.09 1007.86 530.27 1009.48 530.54 1011 537.9 1055.76 565.25 1053.52 582.66 1079.44 582.66 1079.53 582.66 1079.62 582.57 1079.62 579.16 1079.8 532.87 1084.11 496.9 1083.21 472.41 1082.67 453.85 1076.84 452.95 1076.39Z" fill="#e5bb98" opacity="1" stroke-width="4" stroke="none"></path><path d="M434.29 1005.71C430.7 974.4 429.98 954.85 431.33 933.32 431.78 926.05 432.59 917.53 433.39 909.28L491.34 806.3 530.9 910.09C530.99 910.36 530.99 910.53 530.99 910.8 529.64 952.6 528.48 988.75 529.91 1005.71H434.29Z" fill="#ffce99" opacity="1" stroke-width="4" stroke="none"></path><path d="M431.34 933.32C431.7 926.86 432.33 919.77 433.31 910.36L491.35 806.21 530.91 910.09C531 910.27 531 910.45 531 910.71L530.82 915.47 431.34 933.32Z" fill="#4e4943" opacity="0.2" stroke-width="4" stroke="none"></path><path d="M285.39 1005.71C286.37 981.31 289.51 956.73 294.27 934.57 296.15 926.05 299.65 913.94 301.98 906.32L394.91 910C394.28 912.06 393.57 914.66 393.03 916.72 381.19 959.42 374.64 989.29 372.76 1005.89 371.14 1005.8 285.39 1005.71 285.39 1005.71Z" fill="#ffce99" opacity="1" stroke-width="4" stroke="none"></path><path d="M294.27 934.57C296.06 926.32 298.48 917.98 300.82 910.27L395.27 909.91C394.73 911.97 393.93 914.57 393.39 916.63L294.27 934.57Z" fill="#4e4943" opacity="0.2" stroke-width="4" stroke="none"></path><path d="M361.28 1081.51C361.28 1066.88 369.45 1054.77 378.86 1045.54 383.17 1051.55 389.54 1056.21 398.78 1062.67 405.95 1067.6 411.52 1073.43 415.28 1079.53 415.37 1079.62 415.28 1079.8 415.19 1079.8L361.28 1081.51Z" fill="#ffce99" opacity="1" stroke-width="4" stroke="none"></path><path d="M526.95 1079.62C526.95 1065.54 535.56 1054.06 545.34 1044.91 551.53 1052.08 559.42 1058 566.24 1062.76 573.51 1067.78 579.07 1073.43 582.84 1079.62V1079.71L527.04 1081.68V1079.62H526.95Z" fill="#ffce99" opacity="1" stroke-width="4" stroke="none"></path><path d="M288.71 1079.62C287.63 1071.73 286.1 1058.63 285.39 1042.66 285.39 1042.58 285.48 1042.58 285.48 1042.58 307.36 1045.09 326.38 1059.26 334.99 1079.62L312.12 1084.38 289.24 1080.16C288.97 1080.16 288.71 1079.89 288.71 1079.62Z" fill="#ffce99" opacity="1" stroke-width="4" stroke="none"></path><path d="M451.15 1079.53C447.12 1067.51 442.63 1054.42 440.57 1042.31 440.57 1042.22 440.57 1042.22 440.66 1042.22 465.24 1041.95 488.29 1057.73 497.26 1079.44 497.26 1079.53 497.26 1079.53 497.17 1079.53 495.56 1079.8 477.44 1083.12 476.99 1083.21L451.15 1079.53C451.15 1079.62 451.15 1079.62 451.15 1079.53Z" fill="#ffce99" opacity="1" stroke-width="4" stroke="none"></path><path d="M617.19 450.64C617.19 450.64 617.19 450.55 617.1 450.55 617.01 450.46 616.74 450.64 616.74 450.64L596.65 449.11 582.84 452.79C582.66 452.88 577.81 463.46 577.81 463.46 571.17 454.94 557 437.09 545.16 425.88 534.13 416.37 517.35 406.41 507.85 403.81H507.76C478.51 399.33 454.47 401.12 414.38 401.57 414.29 401.57 414.29 401.57 414.2 401.57 406.93 403.81 391.41 411.35 380.38 420.95 376.34 424.44 372.67 428.57 370.6 432.34 354.73 457.81 346.38 511.9 343.51 533.97 339.92 562.4 346.56 586.27 354.64 604.56 358.22 612.55 361.99 619.45 365.4 625.2 351.23 659.73 342.97 701.53 342.62 725.12 336.34 812.94 329.34 830.79 317.86 860.3 312.92 872.77 307.09 888.02 300.46 910.27L466.58 910.36C466.85 910.36 467.12 910.18 467.21 909.91L493.85 834.83C494.12 834.11 495.11 834.29 495.2 835.01L502.19 909.46C502.28 910 502.64 910.36 503.18 910.36L530.99 910.62C531.98 881.2 533.32 848.01 533.5 823.17 534.4 692.56 501.75 580.26 501.39 579.09 501.84 576.22 503.72 564.65 505.96 550.56 506.68 545.9 507.49 541.15 508.2 536.57 510.09 525 511.79 514.77 512.33 511.19 512.42 510.65 513.14 510.38 513.5 510.83 540.68 537.38 597.46 568.68 624.55 533.52 639.98 512.08 629.84 478.71 617.19 450.64Z" fill="#ff2e2e" opacity="1" stroke-width="4" stroke="none"></path><path d="M364.77 623.85C359.66 615.33 358.85 613.62 354.73 604.56 355.08 604.3 369.35 593.08 372.94 566.53 374.91 554.78 375.81 524.01 381.1 519.71 381.37 519.44 381.91 519.62 381.99 519.98 383.43 526.88 393.39 579.99 393.39 579.99L364.77 623.85Z" fill="#000000" opacity="0.2" stroke-width="4" stroke="none"></path><path d="M291.76 1096.04C291.22 1094.42 290.05 1088.77 288.8 1079.98 288.8 1079.8 288.97 1079.53 289.15 1079.53H415.09C415.18 1079.53 415.36 1079.62 415.45 1079.71 420.21 1087.78 420.39 1094.33 420.39 1095.86 420.39 1096.04 420.21 1096.22 420.03 1096.22H292.11C291.93 1096.31 291.85 1096.22 291.76 1096.04Z" fill="#55402a" opacity="1" stroke-width="4" stroke="none"></path><path d="M457.43 1096.04C456.09 1092.81 454.2 1088.23 451.24 1079.8 451.24 1079.71 451.24 1079.71 451.33 1079.71 455.82 1079.71 580.06 1079.71 582.84 1079.71 582.84 1079.71 582.93 1079.71 582.93 1079.8 588.13 1088.68 588.04 1093.79 587.95 1095.77 587.95 1096.13 587.59 1096.4 587.23 1096.4 577.36 1096.4 464.52 1096.31 457.79 1096.31 457.61 1096.22 457.43 1096.13 457.43 1096.04Z" fill="#55402a" opacity="1" stroke-width="4" stroke="none"></path><path d="M411.87 389.46C408.46 374.03 402.9 347.12 400.92 336.63 398.41 323.71 396.53 298.77 413.12 285.14 428.91 271.86 449.72 266.12 469.9 274.28 484.43 279.58 495.11 286.75 500.49 301.11 502.46 306.22 504.26 311.78 506.23 317.52 506.32 317.7 506.5 317.88 506.77 317.97 519.6 319.67 518.25 324.52 512.15 333.13 511.97 333.31 511.97 333.67 512.06 333.94 518.43 354.03 519.15 365.69 512.42 375.11 508.2 380.94 503.27 384.35 491.07 384.35 486.59 384.35 480.85 383.63 477.62 382.37L477.71 391.17 411.87 389.46Z" fill="#e5bb98" opacity="1" stroke-width="4" stroke="none"></path><path d="M400.92 336.54C399.31 305.95 397.06 271.23 448.01 268.36 460.03 268.45 465.51 268.81 481.02 273.3 481.11 273.3 481.11 273.3 481.11 273.39 489.82 279.13 496.54 288.55 500.49 301.19L447.48 332.05 400.92 336.54Z" fill="#ffffff" opacity="1" stroke-width="4" stroke="none"></path><path d="M495.11 318.24C498.88 318.33 498.88 323.89 495.11 323.98 491.34 323.89 491.34 318.33 495.11 318.24Z" fill="#231f20" opacity="1" stroke-width="4" stroke="none"></path><path d="M497.26 495.04L512.33 509.66C512.51 509.84 512.6 510.02 512.51 510.29L508.2 536.57 496.9 495.22C496.9 495.04 497.08 494.95 497.26 495.04Z" fill="#000000" opacity="0.2" stroke-width="4" stroke="none"></path><path d="M581.32 467.86C581.59 468.22 581.95 468.31 582.31 468.13L617.01 450.73C617.1 450.73 617.1 450.55 617.1 450.55 613.07 441.4 608.41 432.43 603.92 423.64 603.83 423.55 603.75 423.46 603.57 423.55L562.75 443.91C562.39 444.09 562.3 444.54 562.57 444.81 569.57 452.34 579.17 464.9 581.32 467.86Z" fill="#ffce99" opacity="1" stroke-width="4" stroke="none"></path><path d="M433.75 442.65C409.89 443.01 389.98 431.71 380.47 420.95 398.86 400.22 402.09 396.73 395.99 348.56 394.1 330.62 388.63 295.45 409.17 279.58 426.94 264.87 459.77 260.83 480.85 273.21 480.94 273.3 481.02 273.39 480.94 273.57 467.12 293.48 461.2 321.11 462.82 362.55 463.17 369.1 465.96 375.92 473.85 380.4 475.82 381.57 478.15 382.55 480.76 383.36L482.82 399.87C482.82 400.05 483 400.22 483.27 400.22 491.7 400.22 499.95 401.48 508.03 403.9 505.24 410.72 478.42 443.28 433.75 442.65Z" fill="#ffce99" opacity="1" stroke-width="4" stroke="none"></path><path d="M480.67 383.27C477.98 382.46 475.73 381.48 473.76 380.31L468.83 399.87C468.83 399.96 468.83 400.05 468.92 400.05L482.64 400.14C482.73 400.14 482.82 400.05 482.82 399.96L480.67 383.27Z" fill="#55402a" opacity="0.2" stroke-width="4" stroke="none"></path><path d="M388.19 550.56H505.97L501.4 579.09 499.87 580.61 393.4 579.99 388.19 550.56Z" fill="#ffffff" opacity="1" stroke-width="4" stroke="none"></path><path d="M318.58 1057.11L372.94 1030.56" stroke="#55402a" stroke-width="4" stroke-linecap="round" stroke-linejoin="round" opacity="1" fill="none"></path><path d="M481.48 1057.82L534.32 1026.25" stroke="#55402a" stroke-width="4" stroke-linecap="round" stroke-linejoin="round" opacity="1" fill="none"></path><path d="M505.7 345.6C502.02 346.14 498.26 344.97 495.48 342.46" stroke="#151414" stroke-width="4" stroke-linecap="round" stroke-linejoin="round" opacity="1" fill="none"></path><path d="M539.24 357.44C549.29 359.23 558.71 363.9 563.37 368.47" stroke="#151414" stroke-width="4" stroke-linecap="round" stroke-linejoin="round" opacity="1" fill="none"></path><path d="M483.01 400.05H468.92" stroke="#55402a" stroke-width="4" stroke-linecap="round" stroke-linejoin="round" opacity="1" fill="none"></path><path d="M513.6 510.83L497.27 495.04" stroke="#000000" stroke-width="4" stroke-linecap="round" stroke-linejoin="round" opacity="1" fill="none"></path><path d="M545.26 425.88C552.08 432.07 557.73 439.24 562.12 444.27 575.58 459.79 581.68 468.4 581.68 468.4" stroke="#000000" stroke-width="4" stroke-linecap="round" stroke-linejoin="round" opacity="1" fill="none"></path><path d="M480.76 383.27C469.54 379.86 465.24 371.52 465.24 371.52" stroke="#55402a" stroke-width="4" stroke-linecap="round" stroke-linejoin="round" opacity="1" fill="none"></path><path d="M502.19 909.46L495.2 835.01" stroke="#4e4943" stroke-width="4" stroke-linecap="round" stroke-linejoin="round" opacity="1" fill="none"></path><path d="M382 519.98L394.02 579.09C394.02 579.09 377.43 596.94 365.41 625.02" stroke="#000000" stroke-width="4" stroke-linecap="round" stroke-linejoin="round" opacity="1" fill="none"></path></g><g><path d="M1016.57 359.51C1007.76 359.51 1000.6 352.34 1000.6 343.53 1000.6 334.72 1007.76 327.56 1016.57 327.56H1441.46C1450.27 327.56 1457.44 334.72 1457.44 343.53 1457.44 352.34 1450.27 359.51 1441.46 359.51H1016.57Z" fill="#cfcfcf" opacity="1" stroke-width="4" stroke="none"></path></g><g><path d="M906.59 1079.59C906.5 1079.59 906.5 1079.5 906.5 1079.41 910.25 1073.26 915.78 1067.55 923.01 1062.55 924.7 1061.39 926.22 1060.32 927.82 1059.16 930.86 1056.93 936.75 1053.09 936.93 1052.91 937.1 1052.73 941.92 1047.2 944.15 1044.52 951.56 1035.87 956.29 1025.61 958.79 1010.71 958.97 1009.63 959.14 1007.31 959.32 1005.44 959.32 1004.91 960.13 1004.28 960.3 1004.1 960.3 1004.1 960.3 1004.1 960.39 1004.1L1053.55 1004.64C1053.55 1004.64 1053.55 1004.64 1053.64 1004.64L1055.07 1005.62 1054.98 1006.42C1053.55 1018.38 1051.5 1030.25 1048.91 1042.03 1046.05 1054.7 1042.93 1062.99 1038.65 1075.31L1033.56 1083.87C1033.56 1083.87 1033.47 1083.96 1033.47 1083.87L906.59 1079.59Z" fill="#ae805a" opacity="1" stroke-width="4" stroke="none"></path><path d="M959.23 1005.53C960.39 991.52 959.77 963.95 959.14 941.55L1004.38 816.1C1004.38 816.01 1004.56 816.01 1004.56 816.1L1058.37 941.64C1059.08 960.38 1058.1 979.56 1055.07 1005.62H959.32C959.23 1005.62 959.23 1005.62 959.23 1005.53Z" fill="#ff2e2e" opacity="1" stroke-width="4" stroke="none"></path><path d="M959.77 971.36C959.68 963.06 959.5 953.24 959.14 941.46L1004.38 816.01C1004.38 815.92 1004.56 815.92 1004.56 816.01L1058.37 941.55C1058.46 944.32 1058.55 947 1058.55 949.67 1058.55 949.67 1058.55 949.76 1058.46 949.76L959.77 971.36Z" fill="#000000" opacity="0.2" stroke-width="4" stroke="none"></path><path d="M1090.67 1062.64C1092.01 1061.75 1093.35 1060.76 1094.51 1059.96 1101.56 1054.96 1106.73 1050.77 1110.39 1045.86 1115.39 1038.99 1117.44 1030.6 1117.44 1016.24 1117.44 1012.67 1117.17 1009.28 1116.72 1005.71 1116.72 1005.62 1116.72 1005.62 1116.81 1005.62L1159.64 1002.05 1204.17 1005.62C1204.26 1005.62 1204.26 1005.62 1204.26 1005.71 1204.79 1017.75 1204.71 1030.43 1204.17 1042.47 1203.63 1055.05 1198.1 1067.01 1196.41 1079.5 1196.41 1079.5 1196.41 1079.59 1196.32 1079.59H1191.14 1074.34C1074.25 1079.59 1074.25 1079.5 1074.25 1079.5 1074.79 1078.25 1079.87 1068.08 1090.67 1062.64Z" fill="#ae805a" opacity="1" stroke-width="4" stroke="none"></path><path d="M1116.81 1005.62C1116.72 1005.62 1116.72 1005.62 1116.81 1005.62 1115.56 996.16 1113.33 983.94 1109.76 968.5 1107.89 960.47 1105.66 951.19 1103.07 941.37 1103.07 941.28 1103.07 941.28 1103.16 941.28L1196.85 941.64C1196.85 941.64 1196.94 941.64 1196.94 941.73 1197.39 944.23 1197.83 946.82 1198.28 949.32 1201.58 967.88 1203.63 986.79 1204.35 1005.62H1116.81Z" fill="#ff2e2e" opacity="1" stroke-width="4" stroke="none"></path><path d="M1109.76 968.41C1107.89 960.47 1105.57 951.1 1103.07 941.37 1103.07 941.28 1103.07 941.28 1103.16 941.28L1196.85 941.64C1196.85 941.64 1196.94 941.64 1196.94 941.73 1197.48 944.32 1197.83 946.82 1198.28 949.23 1198.28 949.32 1198.28 949.32 1198.19 949.32L1109.85 968.5C1109.85 968.5 1109.76 968.5 1109.76 968.41Z" fill="#000000" opacity="0.2" stroke-width="4" stroke="none"></path><path d="M1009.65 392.88L1009.56 391 1011.97 383.42C1000.1 387.43 983.59 384.85 977.08 375.39 970.03 365.48 968.34 355.94 975.03 334.79 974.94 334.7 969.32 327.56 970.3 323.37 971.37 319.71 980.74 318.64 980.83 318.64 983.86 309.8 986.54 301.42 989.75 294.19 994.93 282.68 1002.06 274.92 1014.56 270.28 1035.44 261.71 1062.29 267.33 1078.71 281.16 1095.93 295.35 1088.97 323.9 1086.39 337.47 1084.69 346.57 1083.98 368.87 1080.5 384.94 1080.14 386.72 1079.6 389.31 1079.25 391.18 1079.07 392.34 1077.28 393.77 1077.28 393.77L1009.65 392.88Z" fill="#ae805a" opacity="1" stroke-width="4" stroke="none"></path><path d="M999.48 385.83C970.03 384.76 964.94 364.95 975.12 334.7 981.81 336.75 999.12 345.14 1006.08 344.69 1015.98 344.69 1024.91 339.25 1029.46 330.42L1038.02 313.64C1038.02 313.55 1038.02 313.46 1037.93 313.55 1036.86 313.82 1031.06 315.16 1025.71 315.16 1005.45 315.6 1019.46 296.15 1026.6 289.01 1026.69 288.92 1026.6 288.84 1026.51 288.92 1015.45 294.1 1005.81 295.35 999.74 295.35 993.59 295.35 989.93 294.28 989.84 294.28 995.64 280.98 1002.69 273.67 1014.11 269.12 1021.25 266.26 1029.55 264.83 1038.11 264.83 1091.2 267.69 1099.68 295.26 1090.22 338.18 1088.8 345.59 1083.98 369.14 1080.68 384.94 1080.5 384.94 1061.85 381.1 1051.05 365.66 1051.05 365.57 1051.05 365.57 1051.05 365.48 1055.16 364.15 1085.76 350.31 1075.95 332.2 1073.8 328.01 1068.9 325.78 1061.4 325.78 1054.98 325.78 1048.91 327.38 1048.29 327.56 1048.29 327.56 1048.2 327.56 1048.2 327.65L1032.49 366.02C1026.33 379.31 1017.32 385.29 999.48 385.83Z" fill="#231f20" opacity="1" stroke-width="4" stroke="none"></path><path d="M996.71 321.94C995.01 321.94 993.68 320.51 993.68 318.91 993.68 317.21 995.1 315.87 996.71 315.87 998.32 315.87 999.74 317.3 999.74 318.91 999.57 320.6 998.41 321.94 996.71 321.94Z" fill="#231f20" opacity="1" stroke-width="4" stroke="none"></path><path d="M818.52 463.37C816.64 459.89 815.13 457.12 813.7 454.54L813.34 454.45C807.19 452.66 800.23 450.7 792.37 436.87 792.37 436.78 792.28 436.78 792.2 436.87 791.75 437.85 789.07 441.06 784.25 440.26 777.03 439.54 764.53 422.86 773.46 417.95 773.46 417.95 773.55 417.86 773.46 417.86 772.39 415.54 769.62 407.96 777.83 403.67 777.92 403.67 777.92 403.59 777.83 403.59 775.15 399.21 777.2 392.16 783 390.47 783.09 390.47 783.09 390.38 783 390.29 760.7 379.94 753.83 371.37 754.81 367.18 755.16 365.39 757.04 364.32 759.18 364.5 774.62 365.39 824.59 387.43 833.24 393.95 841.9 400.55 852.43 410.55 865.27 423.93 865.19 424.02 845.02 448.11 845.02 448.11 845.02 448.11 818.61 463.37 818.52 463.37Z" fill="#ae805a" opacity="1" stroke-width="4" stroke="none"></path><path d="M1004.65 843.85C1004.65 843.76 1004.47 843.76 1004.47 843.85L997.96 941.46C997.96 941.55 997.96 941.55 997.87 941.55H959.23C959.14 941.55 959.14 941.55 959.14 941.46 958.88 931.11 958.52 920.32 958.16 910.05 957.18 880.61 956.02 847.5 955.84 822.7 955.22 731.51 970.83 649.5 980.2 608.72 985.02 587.67 985.2 565.36 980.56 544.3L974.05 514.41C974.05 514.32 973.96 514.32 973.87 514.41 971.73 516.73 939.42 551.8 901.68 551.8 873.39 551.8 850.19 518.87 835.29 494.06V493.98L859.65 468.63 887.58 449.27H887.67C898.38 461.58 906.05 471.4 906.86 472.38H906.94C916.58 461.58 943.8 423.3 963.96 412.6 966.19 411.35 968.42 410.19 970.83 409.21 981.45 404.66 994.21 406.17 1007.06 406.44 1007.06 406.44 1072.91 406.53 1071.04 406.26 1071.22 406.26 1095.84 406.53 1112.8 417.95 1116.1 420.81 1119.13 424.11 1121.9 427.94 1139.21 452.48 1156.88 507.98 1161.07 541.27 1164.19 569.55 1158.66 585.35 1141.35 595.79 1134.48 599.98 1125.65 603.28 1114.85 606.14 1114.76 606.14 1114.76 606.23 1114.76 606.23 1126.99 628.18 1142.24 666.63 1146.44 724.81 1152.68 812.79 1159.73 830.73 1171.24 860.26 1176.15 872.85 1182.04 888.1 1188.64 910.32 1191.68 920.49 1194.71 930.93 1196.76 941.73 1196.76 941.82 1196.76 941.82 1196.67 941.82 1192.57 942.18 1041.95 941.73 1037.58 941.73 1037.58 941.73 1037.49 941.73 1037.49 941.64L1004.65 843.85Z" fill="#ffce99" opacity="1" stroke-width="4" stroke="none"></path><path d="M1114.94 605.96H1114.85L1106.28 590.79 1098.25 578.48 1108.34 512.09C1108.34 512.09 1117.44 512.53 1119.31 523.87 1120.47 528.95 1121.01 535.56 1121.54 542.43 1122.35 552.06 1123.24 562.95 1126 572.59 1129.13 583.65 1134.3 591.15 1141.62 595.61H1141.53C1138.05 597.66 1134.12 599.53 1129.57 601.32 1125.47 602.92 1115.74 605.69 1114.94 605.96Z" fill="#55402a" opacity="0.2" stroke-width="4" stroke="none"></path><path d="M974.05 514.23L988.23 498.44C988.32 498.35 988.41 498.44 988.41 498.53 984.04 526.54 980.65 544.3 980.65 544.3L974.05 514.23Z" fill="#55402a" opacity="0.2" stroke-width="4" stroke="none"></path><path d="M971.19 409.12C971.1 409.12 971.1 409.03 971.19 408.94 980.65 404.66 991.98 402.51 1004.29 402.51H1006.44C1006.44 402.51 1006.53 402.51 1006.53 402.43L1009.56 391 1009.65 390.91H1079.34C1079.43 390.91 1079.43 391 1079.43 391 1079.25 391.9 1079.07 392.79 1078.89 393.5 1078 397.96 1077.46 399.66 1077.37 400.11 1077.37 400.19 1077.37 400.19 1077.46 400.19 1078.89 400.46 1097.18 404.21 1112.98 417.59V417.68L1062.56 477.56H1062.47L971.19 409.12Z" fill="#ff2e2e" opacity="1" stroke-width="4" stroke="none"></path><path d="M907.12 472.29L896.68 484.07" stroke="#55402a" stroke-width="4" stroke-linecap="round" stroke-linejoin="round" opacity="1" fill="none"></path><path d="M974.05 514.23L988.41 498.26" stroke="#55402a" stroke-width="4" stroke-linecap="round" stroke-linejoin="round" opacity="1" fill="none"></path><path d="M1108.96 507.27L1098.16 578.48C1098.16 578.48 1104.77 588.29 1114.49 605.16" stroke="#55402a" stroke-width="4" stroke-linecap="round" stroke-linejoin="round" opacity="1" fill="none"></path><path d="M1121.45 556.53L1102.63 550.64" stroke="#55402a" stroke-width="4" stroke-linecap="round" stroke-linejoin="round" opacity="1" fill="none"></path><path d="M1052.12 345.76L1060.51 343.89" stroke="#151413" stroke-width="4" stroke-linecap="round" stroke-linejoin="round" opacity="1" fill="none"></path><path d="M1004.47 843.4L1006.61 795.3" stroke="#55402a" stroke-width="4" stroke-linecap="round" stroke-linejoin="round" opacity="1" fill="none"></path><path d="M773.55 417.95C781.58 414.38 793.09 418.75 793.09 418.75" stroke="#151413" stroke-width="4" stroke-linecap="round" stroke-linejoin="round" opacity="1" fill="none"></path><path d="M778.01 403.67C785.15 401.89 798.44 405.46 798.44 405.46" stroke="#151413" stroke-width="4" stroke-linecap="round" stroke-linejoin="round" opacity="1" fill="none"></path><path d="M783.36 390.38C790.5 389.49 800.23 391.18 804.69 392.97" stroke="#151413" stroke-width="4" stroke-linecap="round" stroke-linejoin="round" opacity="1" fill="none"></path><path d="M1006.53 402.51L1017.32 402.6" stroke="#000000" stroke-width="4" stroke-linecap="round" stroke-linejoin="round" opacity="1" fill="none"></path><path d="M1077.37 400.19L1075.5 407.87" stroke="#000000" stroke-width="4" stroke-linecap="round" stroke-linejoin="round" opacity="1" fill="none"></path><path d="M835.38 493.89C829.4 483.89 824.23 474.17 819.59 465.42L818.52 463.37 865.45 423.93C872.5 431.42 880 439.9 887.85 449.09L835.38 493.89Z" fill="#ff2e2e" opacity="1" stroke-width="4" stroke="none"></path><path d="M1154.38 1079.59H1127.97C1127.97 1079.59 1127.88 1079.59 1127.88 1079.5 1125.74 1066.83 1119.58 1054.87 1110.48 1045.86H1110.39C1106.37 1050.86 1101.29 1054.96 1094.68 1059.87 1094.68 1059.87 1094.6 1059.96 1094.68 1059.96 1098.97 1065.76 1102.09 1072.36 1104.14 1079.41 1104.14 1079.5 1104.14 1079.5 1104.05 1079.5H1074.25 1074.16C1068.9 1088.25 1069.25 1095.3 1069.25 1096.1 1069.25 1096.19 1069.25 1096.19 1069.34 1096.19H1197.75C1197.75 1096.19 1197.83 1096.19 1197.83 1096.1 1198.28 1094.76 1199.62 1088.78 1200.96 1079.5L1201.23 1077.72C1202.39 1069.78 1203.72 1058.09 1204.44 1041.76 1204.44 1041.67 1204.35 1041.67 1204.35 1041.67 1182.67 1044.35 1163.21 1059.51 1154.38 1079.59 1154.47 1079.59 1154.47 1079.59 1154.38 1079.59Z" fill="#ff2e2e" opacity="1" stroke-width="4" stroke="none"></path><path d="M1048.91 1042.03C1024.46 1042.03 1001.97 1057.11 992.25 1079.5L992.16 1079.59H962.54C962.54 1079.59 962.45 1079.59 962.45 1079.5 960.39 1066.56 953.7 1053.71 944.15 1044.7H944.06C939.25 1050.06 933.71 1054.96 927.91 1059.16 927.91 1059.16 927.82 1059.25 927.91 1059.25 932.2 1065.14 935.68 1072.27 937.73 1079.41 937.73 1079.5 937.73 1079.5 937.64 1079.5H906.5 906.41C900.79 1088.78 901.41 1096.1 901.41 1096.19H1031.87L1032.13 1095.47C1033.12 1093.15 1035.44 1087.62 1038.29 1079.5L1039.01 1077.45C1043.29 1065.23 1045.97 1055.14 1048.82 1042.47L1048.91 1042.03Z" fill="#ff2e2e" opacity="1" stroke-width="4" stroke="none"></path></g><g><path d="M1174.11 643.99L1174.48 533.57C1174.48 533.48 1174.57 533.3 1174.66 533.3 1174.66 533.3 1174.66 533.3 1174.75 533.3L1223.76 533.21C1223.85 533.21 1224.03 533.3 1224.03 533.39 1224.03 533.39 1224.03 533.39 1224.03 533.48L1224.39 643.99C1224.39 644.08 1224.3 644.26 1224.21 644.26 1224.21 644.26 1224.21 644.26 1224.12 644.26H1174.39C1174.2 644.26 1174.11 644.17 1174.11 643.99Z" fill="#a3e2ff" opacity="1" stroke-width="4" stroke="none"></path><path d="M1174.48 581.86L1223.22 563.32C1223.4 563.23 1223.58 563.41 1223.58 563.59L1223.67 599.4C1223.67 599.49 1223.58 599.58 1223.49 599.67L1174.48 618.39C1174.29 618.48 1174.29 618.21 1174.29 618.03L1174.39 582.31C1174.48 582.22 1174.39 581.95 1174.48 581.86Z" fill="#ff2e2e" opacity="1" stroke-width="4" stroke="none"></path><path d="M1174.48 533.39L1191.11 515.03C1191.2 514.94 1191.2 514.94 1191.3 514.94L1240.76 514.76C1240.94 514.76 1241.03 514.94 1241.03 515.03 1241.03 515.12 1241.03 515.12 1240.94 515.21L1223.76 533.84C1223.67 533.93 1223.67 533.93 1223.58 533.93H1174.75C1174.57 533.93 1174.48 533.75 1174.48 533.66 1174.48 533.48 1174.48 533.39 1174.48 533.39Z" fill="#ff2e2e" opacity="1" stroke-width="4" stroke="none"></path><path d="M1223.58 643.99V533.93C1223.58 533.84 1223.58 533.84 1223.67 533.75L1240.67 515.12C1240.76 515.03 1240.94 515.03 1241.03 515.12L1258.03 533.75C1258.03 533.84 1258.12 533.84 1258.12 533.93V643.99C1258.12 644.08 1258.03 644.26 1257.94 644.26 1257.94 644.26 1257.94 644.26 1257.85 644.26H1223.85C1223.76 644.26 1223.58 644.17 1223.58 643.99Z" fill="#ff2e2e" opacity="1" stroke-width="4" stroke="none"></path><path d="M1191.2 514.67V507.08C1191.2 506.99 1191.3 506.8 1191.39 506.8 1191.39 506.8 1191.39 506.8 1191.48 506.8L1240.58 506.71C1240.67 506.71 1240.85 506.8 1240.85 506.89 1240.85 506.89 1240.85 506.89 1240.85 506.99L1241.03 514.76C1241.03 514.85 1240.94 515.03 1240.85 515.03 1240.85 515.03 1240.85 515.03 1240.76 515.03L1191.48 514.94C1191.39 514.94 1191.2 514.85 1191.2 514.67Z" fill="#a3e2ff" opacity="1" stroke-width="4" stroke="none"></path><path d="M1223.58 643.99V533.84C1223.58 533.75 1223.58 533.75 1223.67 533.66L1240.67 515.12C1240.76 515.03 1240.94 515.03 1241.03 515.12L1258.03 533.66C1258.03 533.75 1258.12 533.75 1258.12 533.84V643.89C1258.12 643.99 1258.03 644.17 1257.94 644.17 1257.94 644.17 1257.94 644.17 1257.85 644.17L1223.85 644.26C1223.76 644.26 1223.58 644.17 1223.58 643.99Z" fill="#040404" opacity="0.2" stroke-width="4" stroke="none"></path><path d="M1223.58 599.49V563.59C1223.58 563.41 1223.76 563.23 1223.94 563.41L1257.94 581.95C1258.03 581.95 1258.03 582.04 1258.03 582.13V618.03C1258.03 618.21 1257.85 618.39 1257.67 618.21L1223.67 599.77C1223.67 599.67 1223.58 599.58 1223.58 599.49Z" fill="#a3e2ff" opacity="1" stroke-width="4" stroke="none"></path><path d="M1223.58 599.49V563.59C1223.58 563.41 1223.76 563.23 1223.94 563.41L1257.94 581.95C1258.03 581.95 1258.03 582.04 1258.03 582.13V618.03C1258.03 618.21 1257.85 618.39 1257.67 618.21L1223.67 599.77C1223.67 599.67 1223.58 599.58 1223.58 599.49Z" fill="#bdbebf" opacity="0.2" stroke-width="4" stroke="none"></path><path d="M1242.84 643.99L1242.93 533.93C1242.93 533.84 1243.02 533.66 1243.11 533.66 1243.11 533.66 1243.11 533.66 1243.2 533.66L1293.75 533.12C1293.84 533.12 1294.02 533.21 1294.02 533.3 1294.02 533.3 1294.02 533.3 1294.02 533.39L1294.2 644.08C1294.2 644.17 1294.11 644.35 1294.02 644.35 1294.02 644.35 1294.02 644.35 1293.93 644.35H1243.11C1243.02 644.44 1242.84 644.35 1242.75 644.26 1242.75 644.17 1242.75 644.08 1242.84 643.99Z" fill="#a3e2ff" opacity="1" stroke-width="4" stroke="none"></path><path d="M1243.02 582.04L1292.03 563.41C1292.21 563.32 1292.39 563.5 1292.39 563.68L1292.49 599.49C1292.49 599.58 1292.39 599.67 1292.3 599.77L1243.2 618.39C1243.02 618.48 1242.84 618.3 1242.84 618.12V582.31C1242.84 582.22 1242.93 582.13 1243.02 582.04Z" fill="#ff2e2e" opacity="1" stroke-width="4" stroke="none"></path><path d="M1243.29 533.39L1259.93 515.03C1260.02 514.94 1260.02 514.94 1260.11 514.94L1309.4 514.58C1309.58 514.58 1309.76 514.94 1309.58 515.12L1292.58 533.66C1292.49 533.75 1292.49 533.75 1292.39 533.75H1243.65C1243.47 533.75 1243.38 533.57 1243.38 533.39 1243.29 533.48 1243.29 533.48 1243.29 533.39Z" fill="#ff2e2e" opacity="1" stroke-width="4" stroke="none"></path><path d="M1292.3 644.08V533.93C1292.3 533.84 1292.3 533.84 1292.39 533.75L1309.4 515.12C1309.49 515.03 1309.67 515.03 1309.76 515.12L1326.76 533.75C1326.76 533.84 1326.85 533.84 1326.85 533.93V643.99C1326.85 644.08 1326.76 644.26 1326.67 644.26 1326.67 644.26 1326.67 644.26 1326.58 644.26H1292.58C1292.49 644.26 1292.3 644.17 1292.3 644.08Z" fill="#ff2e2e" opacity="1" stroke-width="4" stroke="none"></path><path d="M1259.93 514.67V507.08C1259.93 506.99 1260.02 506.8 1260.11 506.8 1260.11 506.8 1260.11 506.8 1260.2 506.8L1309.31 506.71C1309.4 506.71 1309.58 506.8 1309.58 506.89 1309.58 506.89 1309.58 506.89 1309.58 506.99L1309.67 515.03C1309.67 515.03 1309.67 515.12 1309.58 515.12L1260.2 515.03C1260.02 514.94 1259.93 514.85 1259.93 514.67Z" fill="#a3e2ff" opacity="1" stroke-width="4" stroke="none"></path><path d="M1292.3 644.08V533.93C1292.3 533.84 1292.3 533.84 1292.39 533.75L1309.4 515.12C1309.49 515.03 1309.67 515.03 1309.76 515.12L1326.76 533.75C1326.76 533.84 1326.85 533.84 1326.85 533.93V643.99C1326.85 644.08 1326.76 644.26 1326.67 644.26 1326.67 644.26 1326.67 644.26 1326.58 644.26L1292.58 644.44C1292.49 644.44 1292.3 644.35 1292.3 644.08 1292.3 644.17 1292.3 644.17 1292.3 644.08Z" fill="#040404" opacity="0.2" stroke-width="4" stroke="none"></path><path d="M1292.3 599.49V563.59C1292.3 563.41 1292.49 563.23 1292.67 563.41L1326.67 581.95C1326.76 581.95 1326.76 582.04 1326.76 582.13V618.03C1326.76 618.21 1326.58 618.39 1326.4 618.21L1292.39 599.77C1292.39 599.67 1292.3 599.58 1292.3 599.49Z" fill="#a3e2ff" opacity="1" stroke-width="4" stroke="none"></path><path d="M1292.3 599.49V563.59C1292.3 563.41 1292.49 563.23 1292.67 563.41L1326.67 581.95C1326.76 581.95 1326.76 582.04 1326.76 582.13V618.03C1326.76 618.21 1326.58 618.39 1326.4 618.21L1292.39 599.77C1292.39 599.67 1292.3 599.58 1292.3 599.49Z" fill="#bdbebf" opacity="0.2" stroke-width="4" stroke="none"></path><path d="M1311.66 643.99L1311.57 533.84C1311.57 533.75 1311.66 533.57 1311.75 533.57 1311.75 533.57 1311.75 533.57 1311.84 533.57L1361.21 533.12C1361.3 533.12 1361.48 533.21 1361.48 533.3 1361.48 533.3 1361.48 533.3 1361.48 533.39L1361.84 643.99C1361.84 644.08 1361.75 644.26 1361.66 644.26 1361.66 644.26 1361.66 644.26 1361.57 644.26H1311.93C1311.84 644.26 1311.66 644.17 1311.66 643.99Z" fill="#a3e2ff" opacity="1" stroke-width="4" stroke="none"></path><path d="M1311.75 581.95L1360.76 563.32C1360.94 563.23 1361.12 563.41 1361.12 563.59V599.4C1361.12 599.49 1361.03 599.58 1360.94 599.67L1312.02 618.39C1311.84 618.48 1311.57 618.3 1311.57 618.12V582.31C1311.57 582.31 1311.66 582.04 1311.75 581.95Z" fill="#ff2e2e" opacity="1" stroke-width="4" stroke="none"></path><path d="M1311.93 533.3L1328.66 514.94C1328.75 514.85 1328.75 514.85 1328.84 514.85L1378.3 514.4C1378.3 514.67 1378.3 515.03 1378.3 515.3L1361.12 533.66C1361.03 533.75 1361.03 533.75 1360.94 533.75H1312.2C1312.02 533.75 1311.93 533.57 1311.93 533.3 1311.93 533.39 1311.93 533.39 1311.93 533.3Z" fill="#ff2e2e" opacity="1" stroke-width="4" stroke="none"></path><path d="M1361.12 643.99V533.48C1361.12 533.39 1361.12 533.39 1361.21 533.3L1377.94 515.03C1378.03 514.94 1378.21 514.94 1378.3 515.03L1395.57 533.75C1395.66 533.75 1395.66 533.84 1395.66 533.93V643.99C1395.66 644.08 1395.57 644.26 1395.48 644.26 1395.48 644.26 1395.48 644.26 1395.39 644.26H1361.39C1361.3 644.26 1361.12 644.17 1361.12 643.99Z" fill="#ff2e2e" opacity="1" stroke-width="4" stroke="none"></path><path d="M1328.75 514.67V507.08C1328.75 506.99 1328.84 506.8 1328.93 506.8 1328.93 506.8 1328.93 506.8 1329.02 506.8L1378.03 506.71C1378.12 506.71 1378.3 506.8 1378.3 506.89 1378.3 506.89 1378.3 506.89 1378.3 506.99V514.67C1378.3 514.76 1378.21 514.94 1378.12 514.94 1378.12 514.94 1378.12 514.94 1378.03 514.94H1329.02C1328.93 514.94 1328.75 514.85 1328.75 514.67Z" fill="#a3e2ff" opacity="1" stroke-width="4" stroke="none"></path><path d="M1361.12 643.89V533.66C1361.12 533.57 1361.12 533.57 1361.21 533.48L1377.94 515.03C1378.03 514.94 1378.21 514.94 1378.3 515.03L1395.57 533.75C1395.66 533.84 1395.66 533.84 1395.66 533.93V643.99C1395.66 644.08 1395.57 644.26 1395.48 644.26 1395.48 644.26 1395.48 644.26 1395.39 644.26H1361.39C1361.21 644.26 1361.12 644.17 1361.12 643.89Z" fill="#040404" opacity="0.2" stroke-width="4" stroke="none"></path><path d="M1361.12 599.49V563.59C1361.12 563.41 1361.3 563.23 1361.48 563.41L1395.48 581.95C1395.57 581.95 1395.57 582.04 1395.57 582.13V618.03C1395.57 618.21 1395.39 618.39 1395.21 618.21L1361.21 599.77C1361.21 599.67 1361.12 599.58 1361.12 599.49Z" fill="#a3e2ff" opacity="1" stroke-width="4" stroke="none"></path><path d="M1361.12 599.49V563.59C1361.12 563.41 1361.3 563.23 1361.48 563.41L1395.48 581.95C1395.57 581.95 1395.57 582.04 1395.57 582.13V618.03C1395.57 618.21 1395.39 618.39 1395.21 618.21L1361.21 599.77C1361.21 599.67 1361.12 599.58 1361.12 599.49Z" fill="#bdbebf" opacity="0.2" stroke-width="4" stroke="none"></path></g><g><path d="M765.44 566.22C760.99 566.22 757.45 562.6 757.45 558.23 757.45 543.65 769.31 531.78 783.89 531.78 798.47 531.78 810.34 543.65 810.34 558.23 810.34 562.68 806.71 566.22 802.35 566.22H765.44Z" fill="#ffce99" opacity="1" stroke-width="4" stroke="none"></path><path d="M810.42 590.44C810.42 586.49 807.54 583.11 803.75 582.37 807.54 581.63 810.42 578.33 810.42 574.38 810.42 569.84 806.71 566.22 802.26 566.22H765.6C761.07 566.22 757.45 569.93 757.45 574.38 757.45 578.33 760.33 581.71 764.12 582.37 760.33 583.11 757.45 586.4 757.45 590.44 757.45 594.48 760.33 597.77 764.12 598.43 760.33 599.17 757.45 602.47 757.45 606.51 757.45 611.04 761.15 614.66 765.6 614.66H802.26C806.8 614.66 810.42 610.95 810.42 606.51 810.42 602.55 807.54 599.17 803.75 598.43 807.54 597.77 810.42 594.4 810.42 590.44Z" fill="#ec7b01" opacity="1" stroke-width="4" stroke="none"></path><path d="M768.32 644.57C762.31 644.57 757.45 639.71 757.45 633.78V625.54C757.45 619.61 762.31 614.74 768.32 614.74H799.55C805.56 614.74 810.42 619.61 810.42 625.54V633.78C810.42 639.71 805.56 644.57 799.55 644.57H768.32Z" fill="#ffce99" opacity="1" stroke-width="4" stroke="none"></path><path d="M810.42 590.44C810.42 586.49 807.54 583.11 803.75 582.37 807.54 581.63 810.42 578.33 810.42 574.38 810.42 569.84 806.71 566.22 802.26 566.22H802.35C806.8 566.22 810.34 562.6 810.34 558.23 810.34 543.65 798.47 531.78 783.89 531.78 781.42 531.78 779.03 532.11 776.73 532.77 787.85 535.9 796.09 546.12 796.09 558.23 796.09 562.68 792.46 566.22 788.09 566.22H788.01C792.54 566.22 796.17 569.93 796.17 574.38 796.17 578.33 793.28 581.71 789.49 582.37 793.28 583.11 796.17 586.4 796.17 590.44 796.17 594.48 793.28 597.77 789.49 598.43 793.28 599.17 796.17 602.47 796.17 606.51 796.17 611.04 792.46 614.66 788.01 614.66H785.46C791.39 614.74 796.17 619.52 796.17 625.45V633.69C796.17 639.62 791.31 644.49 785.29 644.49H799.55C805.56 644.49 810.42 639.62 810.42 633.69V625.45C810.42 619.52 805.64 614.74 799.71 614.66H802.26C806.8 614.66 810.42 610.95 810.42 606.51 810.42 602.55 807.54 599.17 803.75 598.43 807.54 597.77 810.42 594.4 810.42 590.44Z" fill="#131313" opacity="0.2" stroke-width="4" stroke="none"></path><path d="M771.86 534.58V520.74H795.92V534.58H771.86Z" fill="#ec7b01" opacity="1" stroke-width="4" stroke="none"></path><path d="M772.03 534.17H795.51" stroke="#131313" stroke-width="4" stroke-linecap="round" stroke-linejoin="round" opacity="1" fill="none"></path><path d="M763.96 582.12H803.58" stroke="#131313" stroke-width="4" stroke-linecap="round" stroke-linejoin="round" opacity="1" fill="none"></path><path d="M763.96 598.27H803.58" stroke="#131313" stroke-width="4" stroke-linecap="round" stroke-linejoin="round" opacity="1" fill="none"></path><path d="M616.57 566.22C612.12 566.22 608.58 562.6 608.58 558.23 608.58 543.65 620.44 531.78 635.02 531.78 649.61 531.78 661.47 543.65 661.47 558.23 661.47 562.68 657.84 566.22 653.48 566.22H616.57Z" fill="#ffce99" opacity="1" stroke-width="4" stroke="none"></path><path d="M661.55 590.44C661.55 586.49 658.67 583.11 654.88 582.37 658.67 581.63 661.55 578.33 661.55 574.38 661.55 569.84 657.84 566.22 653.4 566.22H616.73C612.2 566.22 608.58 569.93 608.58 574.38 608.58 578.33 611.46 581.71 615.25 582.37 611.46 583.11 608.58 586.4 608.58 590.44 608.58 594.48 611.46 597.77 615.25 598.43 611.46 599.17 608.58 602.47 608.58 606.51 608.58 611.04 612.29 614.66 616.73 614.66H653.4C657.93 614.66 661.55 610.95 661.55 606.51 661.55 602.55 658.67 599.17 654.88 598.43 658.67 597.77 661.55 594.4 661.55 590.44Z" fill="#ec7b01" opacity="1" stroke-width="4" stroke="none"></path><path d="M619.45 644.57C613.44 644.57 608.58 639.71 608.58 633.78V625.54C608.58 619.61 613.44 614.74 619.45 614.74H650.68C656.69 614.74 661.55 619.61 661.55 625.54V633.78C661.55 639.71 656.69 644.57 650.68 644.57H619.45Z" fill="#ffce99" opacity="1" stroke-width="4" stroke="none"></path><path d="M661.55 590.44C661.55 586.49 658.67 583.11 654.88 582.37 658.67 581.63 661.55 578.33 661.55 574.38 661.55 569.84 657.84 566.22 653.4 566.22H653.48C657.93 566.22 661.47 562.6 661.47 558.23 661.47 543.65 649.61 531.78 635.02 531.78 632.55 531.78 630.16 532.11 627.86 532.77 638.98 535.9 647.22 546.12 647.22 558.23 647.22 562.68 643.59 566.22 639.23 566.22H639.14C643.67 566.22 647.3 569.93 647.3 574.38 647.3 578.33 644.42 581.71 640.63 582.37 644.42 583.11 647.3 586.4 647.3 590.44 647.3 594.48 644.42 597.77 640.63 598.43 644.42 599.17 647.3 602.47 647.3 606.51 647.3 611.04 643.59 614.66 639.14 614.66H636.59C642.52 614.74 647.3 619.52 647.3 625.45V633.69C647.3 639.62 642.44 644.49 636.42 644.49H650.68C656.69 644.49 661.55 639.62 661.55 633.69V625.45C661.55 619.52 656.77 614.74 650.84 614.66H653.4C657.93 614.66 661.55 610.95 661.55 606.51 661.55 602.55 658.67 599.17 654.88 598.43 658.67 597.77 661.55 594.4 661.55 590.44Z" fill="#131313" opacity="0.2" stroke-width="4" stroke="none"></path><path d="M623 534.58V520.74H647.05V534.58H623Z" fill="#ec7b01" opacity="1" stroke-width="4" stroke="none"></path><path d="M623.16 534.17H646.64" stroke="#131313" stroke-width="4" stroke-linecap="round" stroke-linejoin="round" opacity="1" fill="none"></path><path d="M615.09 582.12H654.71" stroke="#131313" stroke-width="4" stroke-linecap="round" stroke-linejoin="round" opacity="1" fill="none"></path><path d="M615.09 598.27H654.71" stroke="#131313" stroke-width="4" stroke-linecap="round" stroke-linejoin="round" opacity="1" fill="none"></path><path d="M690.96 566.22C686.51 566.22 682.97 562.6 682.97 558.23 682.97 543.65 694.83 531.78 709.42 531.78 724 531.78 735.86 543.65 735.86 558.23 735.86 562.68 732.24 566.22 727.87 566.22H690.96Z" fill="#ffce99" opacity="1" stroke-width="4" stroke="none"></path><path d="M736.03 590.44C736.03 586.49 733.14 583.11 729.35 582.37 733.14 581.63 736.03 578.33 736.03 574.38 736.03 569.84 732.32 566.22 727.87 566.22H691.21C686.68 566.22 683.05 569.93 683.05 574.38 683.05 578.33 685.94 581.71 689.73 582.37 685.94 583.11 683.05 586.4 683.05 590.44 683.05 594.48 685.94 597.77 689.73 598.43 685.94 599.17 683.05 602.47 683.05 606.51 683.05 611.04 686.76 614.66 691.21 614.66H727.87C732.4 614.66 736.03 610.95 736.03 606.51 736.03 602.55 733.14 599.17 729.35 598.43 733.14 597.77 736.03 594.4 736.03 590.44Z" fill="#ec7b01" opacity="1" stroke-width="4" stroke="none"></path><path d="M693.85 644.57C687.83 644.57 682.97 639.71 682.97 633.78V625.54C682.97 619.61 687.83 614.74 693.85 614.74H725.07C731.08 614.74 735.94 619.61 735.94 625.54V633.78C735.94 639.71 731.08 644.57 725.07 644.57H693.85Z" fill="#ffce99" opacity="1" stroke-width="4" stroke="none"></path><path d="M736.03 590.44C736.03 586.49 733.14 583.11 729.35 582.37 733.14 581.63 736.03 578.33 736.03 574.38 736.03 569.84 732.32 566.22 727.87 566.22H727.95C732.4 566.22 735.94 562.6 735.94 558.23 735.94 543.65 724.08 531.78 709.5 531.78 707.03 531.78 704.64 532.11 702.33 532.77 713.45 535.9 721.69 546.12 721.69 558.23 721.69 562.68 718.07 566.22 713.7 566.22H713.62C718.15 566.22 721.77 569.93 721.77 574.38 721.77 578.33 718.89 581.71 715.1 582.37 718.89 583.11 721.77 586.4 721.77 590.44 721.77 594.48 718.89 597.77 715.1 598.43 718.89 599.17 721.77 602.47 721.77 606.51 721.77 611.04 718.07 614.66 713.62 614.66H711.06C717 614.74 721.77 619.52 721.77 625.45V633.69C721.77 639.62 716.91 644.49 710.9 644.49H725.15C731.17 644.49 736.03 639.62 736.03 633.69V625.45C736.03 619.52 731.25 614.74 725.32 614.66H727.87C732.4 614.66 736.03 610.95 736.03 606.51 736.03 602.55 733.14 599.17 729.35 598.43 733.14 597.77 736.03 594.4 736.03 590.44Z" fill="#131313" opacity="0.2" stroke-width="4" stroke="none"></path><path d="M697.39 534.58V520.74H721.45L721.53 534.58H697.39Z" fill="#ec7b01" opacity="1" stroke-width="4" stroke="none"></path><path d="M697.55 534.17H721.03" stroke="#131313" stroke-width="4" stroke-linecap="round" stroke-linejoin="round" opacity="1" fill="none"></path><path d="M689.48 582.12H729.11" stroke="#131313" stroke-width="4" stroke-linecap="round" stroke-linejoin="round" opacity="1" fill="none"></path><path d="M689.48 598.27H729.11" stroke="#131313" stroke-width="4" stroke-linecap="round" stroke-linejoin="round" opacity="1" fill="none"></path></g><g><path d="M1426.64 681.78H644.08V1096.42H1426.64V681.78Z" fill="#3c2c5b" opacity="1" stroke-width="4" stroke="none"></path><path d="M644.08 681.78H1426.49V943.14L644.08 724.16V681.78Z" fill="#251e34" opacity="0.3" stroke-width="4" stroke="none"></path><path d="M1426.64 1003.21H644.08V1096.76H1426.64V1003.21Z" fill="#a3e2ff" opacity="1" stroke-width="4" stroke="none"></path><path d="M1426.49 643.46H578.82V703.19H1426.49V643.46Z" fill="#cfcfcf" opacity="1" stroke-width="4" stroke="none"></path><path d="M643.65 703.19H1426.49" stroke="#000000" stroke-width="4" stroke-linecap="round" stroke-linejoin="round" opacity="1" fill="none"></path><path d="M643.65 1003.21H1426.49" stroke="#000000" stroke-width="4" stroke-linecap="round" stroke-linejoin="round" opacity="1" fill="none"></path></g><g><path d="M1203.28 885.55H1409.6V1097.22H1203.28V885.55Z" fill="#ff2e2e" opacity="1" stroke-width="4" stroke="none"></path><path d="M1273.83 934.73L1333.7 964.66V885.55H1273.83V934.73Z" fill="#050001" opacity="1" stroke-width="4" stroke="none"></path><path d="M1404.25 885.55H1511.15V1097.22H1404.25V885.55Z" fill="#b10000" opacity="1" stroke-width="4" stroke="none"></path><path d="M1404.25 1097.22H1511.15V1041.63L1404.25 1080.11V1097.22Z" fill="#000000" opacity="0.2" stroke-width="4" stroke="none"></path><path d="M1404.25 885.55V1097.22" stroke="#000000" stroke-width="4" stroke-linecap="round" stroke-linejoin="round" opacity="1" fill="none"></path></g></svg>